<?xml version="1.0" encoding="UTF-8"?><svg id="a" xmlns="http://www.w3.org/2000/svg" viewBox="0 0 249.88 249.88"><defs><style>.e{fill:#a2d5e3;}</style></defs><g id="b"><path id="c" class="e" d="M188.72,84.71c-4.2,1.79-8.61,3.03-13.12,3.71,2.09-.35,5.12-4.14,6.33-5.69,1.92-2.33,3.37-5,4.29-7.87,.11-.22,.18-.5-.05-.67-.23-.1-.49-.07-.7,.06-4.87,2.6-10.05,4.59-15.42,5.9-.38,.12-.79,0-1.06-.28-.41-.49-.86-.95-1.35-1.38-2.23-1.91-4.75-3.45-7.47-4.55-3.63-1.47-7.55-2.1-11.46-1.84-3.8,.26-7.5,1.31-10.87,3.07-3.38,1.77-6.36,4.2-8.76,7.16-2.49,3.07-4.28,6.65-5.24,10.48-.82,3.64-.92,7.4-.28,11.07,.08,.62,0,.71-.53,.62-20.4-2.08-39.29-11.69-52.98-26.97-.62-.71-.96-.71-1.46,.05-5.66,10.43-3.81,23.33,4.55,31.74,1.04,.98,2.11,1.97,3.26,2.85-3.57-.26-7.05-1.23-10.24-2.85-.61-.39-.93-.17-.98,.53-.04,1.01,.02,2.03,.17,3.03,1.27,9.71,7.67,17.98,16.74,21.66,1.1,.47,2.24,.82,3.41,1.04-3.3,.66-6.69,.76-10.03,.31-.73-.14-1.01,.23-.73,.93,3.49,9.13,11.46,15.81,21.06,17.64,.96,.17,1.91,.17,2.85,.39-.06,.09-.11,.09-.17,.17-4.09,3.69-9.04,6.31-14.39,7.63-7,2.5-14.45,3.45-21.85,2.79-1.17-.17-1.42-.16-1.74,0s-.04,.48,.34,.79c1.49,.98,3.01,1.86,4.55,2.7,4.64,2.47,9.54,4.43,14.6,5.84,26.52,7.98,55.29,1.26,75.53-17.64,15.48-15.37,20.9-36.58,20.9-57.82,0-.83,.98-1.29,1.57-1.71,4-3.04,7.54-6.64,10.51-10.69,.49-.59,.8-1.29,.92-2.05v-.11c0-.34-.24-.24-.76,0"/><path id="d" class="e" d="M124.96,0C55.96-.01,.01,55.91,0,124.92c-.01,69,55.91,124.95,124.92,124.96,69,.01,124.95-55.91,124.96-124.92v-.02C249.8,55.98,193.92,.09,124.96,0m0,233.85c-60.15,0-108.92-48.76-108.92-108.91,0-60.15,48.76-108.92,108.91-108.92,60.15,0,108.92,48.76,108.92,108.91h0c-.07,60.13-48.79,108.85-108.91,108.92"/></g></svg>