<?xml version="1.0" encoding="UTF-8"?><svg id="a" xmlns="http://www.w3.org/2000/svg" viewBox="0 0 249.88 249.88"><defs><style>.e,.f{fill:#a2d5e3;}.f{fill-rule:evenodd;}</style></defs><g id="b"><path id="c" class="f" d="M108.5,125.41v61.15c0,.88,.71,1.59,1.59,1.59h22.68c.88,0,1.59-.72,1.59-1.59v-62.12h16.46c.83,0,1.52-.63,1.59-1.46l1.58-18.72c.06-.88-.6-1.64-1.48-1.7-.04,0-.07,0-.11,0h-18.02v-13.3c0-3.11,2.52-5.64,5.64-5.64h12.68c.88,0,1.59-.71,1.59-1.59h0v-18.72c0-.88-.71-1.59-1.58-1.59h-21.43c-12.58,0-22.77,10.19-22.77,22.77v18.04h-11.36c-.88,0-1.59,.72-1.59,1.59v18.72c0,.88,.71,1.59,1.59,1.59h11.35v.98Z"/><path id="d" class="e" d="M124.93,0C55.93,0,0,55.95,0,124.95c0,69,55.95,124.93,124.95,124.93,69,0,124.93-55.94,124.93-124.94C249.8,55.97,193.9,.07,124.93,0m108.91,124.94c0,60.15-48.76,108.92-108.92,108.92-60.15,0-108.92-48.76-108.92-108.92,0-60.15,48.76-108.92,108.92-108.92h0c60.12,.07,108.84,48.79,108.91,108.92"/></g></svg>