<?xml version="1.0" encoding="UTF-8"?><svg id="a" xmlns="http://www.w3.org/2000/svg" viewBox="0 0 271.58 249.88"><defs><style>.b{fill:#a2d5e3;}</style></defs><path class="b" d="M36.24,34.5c-5.82,0-10.55,4.72-10.55,10.57v3.88h48.72v-3.88c0-5.85-4.73-10.57-10.56-10.57h-27.61Z"/><g><path class="b" d="M187.07,57.41c-3.35-14.46-16.27-25.26-31.75-25.26h-39.05c-15.48,0-28.41,10.8-31.74,25.26H22.13C9.91,57.41,0,67.32,0,79.54v116.06C0,207.83,9.91,217.73,22.13,217.73H249.45c12.22,0,22.12-9.91,22.12-22.14V79.54c0-12.22-9.91-22.12-22.12-22.12h-62.38Zm-51.1,130.05c-27.57,0-49.9-22.33-49.9-49.9s22.33-49.91,49.9-49.91,49.91,22.36,49.91,49.91-22.34,49.9-49.91,49.9Zm102.84-106.77h-23.25c-2.33,0-4.23-1.89-4.23-4.25s1.9-4.22,4.23-4.22h23.25c2.34,0,4.23,1.88,4.23,4.22s-1.88,4.25-4.23,4.25Z"/><path class="b" d="M168.61,137.57c-.01,9.03-3.66,17.16-9.56,23.07-5.91,5.92-14.05,9.56-23.08,9.57-9.02,0-17.15-3.65-23.07-9.57-5.92-5.91-9.57-14.05-9.57-23.07s3.65-17.16,9.57-23.08c5.91-5.91,14.04-9.55,23.07-9.55s17.17,3.65,23.08,9.55c5.9,5.92,9.55,14.06,9.56,23.08Z"/></g></svg>