<?xml version="1.0" encoding="UTF-8"?><svg id="a" xmlns="http://www.w3.org/2000/svg" viewBox="0 0 163.66 249.88"><defs><style>.b{fill:#fff;}.c{fill:#ffdeae;}.d{stroke:#c49047;stroke-width:2.34px;}.d,.e{fill:none;stroke-miterlimit:10;}.f{fill:#c49047;}.g{fill:#fdbc62;}.h{fill:#ff545f;}.i{fill:#ffce68;}.e{stroke:#fdbc62;stroke-width:1.67px;}</style></defs><path class="i" d="M118.99,95.13c26.51,13.53,44.66,41.1,44.66,72.92,0,45.19-36.64,81.83-81.83,81.83S0,213.24,0,168.05C0,136.98,17.31,109.96,42.81,96.1c11.59-6.3,24.88-9.88,39.01-9.88,13.38,0,26.02,3.21,37.17,8.91Z"/><path class="g" d="M81.83,246.53c-20.96,0-40.67-8.16-55.49-22.99-14.82-14.82-22.98-34.53-22.98-55.49,0-28.8,15.73-55.24,41.06-69,11.41-6.2,24.35-9.47,37.41-9.47s24.55,2.87,35.64,8.54c12.69,6.48,23.39,16.3,30.96,28.4,7.77,12.43,11.88,26.8,11.88,41.54,0,20.96-8.16,40.67-22.99,55.49-14.82,14.82-34.53,22.99-55.49,22.99Z"/><path class="d" d="M81.83,236.96c-18.41,0-35.71-7.17-48.72-20.18-13.01-13.02-20.18-30.32-20.18-48.73,0-25.29,13.82-48.5,36.06-60.59,10.02-5.44,21.38-8.32,32.85-8.32s21.55,2.52,31.3,7.5c11.14,5.69,20.54,14.31,27.18,24.93,6.82,10.92,10.43,23.53,10.43,36.47,0,18.41-7.17,35.71-20.18,48.73-13.02,13.02-30.32,20.18-48.73,20.18Z"/><path class="e" d="M81.83,214.78c-12.48,0-24.21-4.86-33.04-13.69-8.82-8.83-13.68-20.56-13.68-33.04,0-17.15,9.37-32.89,24.45-41.08,6.79-3.69,14.5-5.64,22.27-5.64s14.62,1.71,21.22,5.09c7.55,3.86,13.93,9.7,18.43,16.91,4.63,7.4,7.07,15.95,7.07,24.73,0,12.48-4.86,24.22-13.69,33.04-8.83,8.83-20.56,13.69-33.04,13.69Z"/><path class="d" d="M81.83,224.95c-15.2,0-29.49-5.92-40.23-16.67-10.75-10.75-16.66-25.03-16.66-40.23,0-20.88,11.41-40.05,29.77-50.03,8.27-4.49,17.65-6.87,27.12-6.87s17.8,2.08,25.84,6.19c9.2,4.7,16.96,11.82,22.44,20.59,5.63,9.01,8.61,19.43,8.61,30.11,0,15.2-5.92,29.49-16.67,40.23-10.75,10.75-25.03,16.67-40.23,16.67Z"/><path class="g" d="M115.01,80.41c2.08,4.65,3.24,9.65,3.42,14.72-11.15-5.7-23.79-8.91-37.17-8.91-14.13,0-27.42,3.58-39.01,9.88,.06-5.41,1.24-10.75,3.45-15.69l1.03-2.3c1.15-2.58,3.55-4.38,6.35-4.77l3.05-.43c16.07-2.25,32.38-2.25,48.46,0l3.04,.43c2.8,.39,5.2,2.19,6.35,4.77l1.03,2.3Zm-8.2,2.26v-3.02c0-.88-.71-1.59-1.59-1.59H55.49c-.88,0-1.59,.71-1.59,1.59v3.02c0,.88,.71,1.59,1.59,1.59h49.73c.88,0,1.59-.71,1.59-1.59Z"/><g><polygon class="h" points="132.3 0 103.93 79.23 88.16 79.23 116.45 .06 116.45 0 132.3 0"/><polygon class="b" points="116.45 0 116.45 .06 88.16 79.23 72.6 79.23 100.89 .06 100.89 0 116.45 0"/><polygon class="h" points="100.89 0 100.89 .06 72.6 79.23 56.69 79.23 85.07 0 100.89 0"/></g><g><polygon class="h" points="28.32 0 56.69 79.23 72.45 79.23 44.16 .06 44.16 0 28.32 0"/><polygon class="b" points="44.16 0 44.16 .06 72.45 79.23 88.02 79.23 59.73 .06 59.73 0 44.16 0"/><polygon class="h" points="59.73 0 59.73 .06 88.02 79.23 103.92 79.23 75.55 0 59.73 0"/></g><g><circle class="c" cx="81.83" cy="168.36" r="74.7" transform="translate(-93.9 232.86) rotate(-84.23)"/><circle class="i" cx="81.83" cy="168.36" r="69.83" transform="translate(-97.73 221.26) rotate(-80.49)"/><circle class="f" cx="81.83" cy="168.36" r="53.18" transform="translate(-97.72 221.28) rotate(-80.5)"/><path class="i" d="M104.42,202.29H59.23v-11.82h14.27v-35.78h-14.27v-11.05c2.18,0,4.27-.13,6.27-.39,2-.26,3.67-.7,5-1.34,1.58-.76,2.76-1.74,3.55-2.95,.79-1.21,1.24-2.73,1.36-4.55h15.05v56.05h13.96v11.82Z"/><g><g><path class="f" d="M19.07,145.1s0,0,0,.01c0,.32-.02,4.97,1.14,8.05,1.2,3.2,.18,8.16,.18,8.16,0,0-3.28-3.73-3.51-6.46-.28-3.29,2.11-9.57,2.19-9.76Z"/><path class="c" d="M19.85,147.81c.93,2.02,1.88,3.64,2.68,6.06,.47,1.41-.22,5.02-1.28,6.51-.34,.68-.86,.95-.86,.95,0,0,1.02-4.96-.18-8.16-1.16-3.08-1.14-7.73-1.14-8.05,.03,.18,.3,1.64,.78,2.7Z"/></g><g><path class="f" d="M30,149.59h0c-.22,.25-3.3,3.73-4.46,6.81-1.21,3.2-5.25,6.25-5.25,6.25,0,0,0-4.97,1.63-7.17,1.96-2.66,7.9-5.79,8.09-5.89Z"/><path class="c" d="M28.8,152.14c-.64,2.13-.99,3.98-1.99,6.32-.58,1.37-3.48,3.62-5.26,4.05-.71,.29-1.28,.14-1.28,.14,0,0,4.05-3.05,5.25-6.25,1.16-3.08,4.24-6.56,4.46-6.8-.09,.16-.86,1.43-1.2,2.54Z"/></g><g><g><path class="f" d="M16.18,156.47h0c.04,.33,.7,4.93,2.3,7.81,1.66,2.99,1.37,8.05,1.37,8.05,0,0-3.79-3.21-4.42-5.88-.76-3.21,.69-9.78,.73-9.98Z"/><path class="c" d="M17.35,159.04c1.21,1.87,2.39,3.33,3.54,5.6,.67,1.32,.51,4.99-.31,6.63-.24,.73-.71,1.07-.71,1.07,0,0,.29-5.06-1.37-8.05-1.6-2.88-2.26-7.48-2.3-7.8,.06,.17,.53,1.58,1.16,2.55Z"/></g><g><path class="f" d="M27.65,159.31h0c-.18,.28-2.72,4.17-3.42,7.39-.73,3.34-4.28,6.95-4.28,6.95,0,0-.72-4.91,.57-7.33,1.55-2.92,6.97-6.89,7.14-7.01Z"/><path class="c" d="M26.83,162.01c-.32,2.2-.4,4.08-1.04,6.54-.37,1.44-2.91,4.09-4.61,4.77-.66,.39-1.24,.33-1.24,.33,0,0,3.56-3.61,4.28-6.95,.7-3.22,3.24-7.11,3.42-7.38-.07,.17-.64,1.54-.81,2.69Z"/></g></g><g><g><path class="f" d="M14.99,168.82h0c.12,.31,1.82,4.63,4.05,7.06,2.31,2.52,3.2,7.51,3.2,7.51,0,0-4.43-2.25-5.66-4.7-1.49-2.95-1.6-9.67-1.6-9.88Z"/><path class="c" d="M16.72,171.04c1.61,1.53,3.1,2.68,4.74,4.63,.96,1.13,1.66,4.74,1.23,6.52-.07,.76-.45,1.2-.45,1.2,0,0-.89-4.99-3.2-7.51-2.22-2.43-3.93-6.75-4.05-7.05,.1,.15,.88,1.41,1.72,2.21Z"/></g><g><path class="f" d="M26.81,168.93h0c-.11,.32-1.68,4.69-1.62,7.98,.07,3.42-2.55,7.76-2.55,7.76,0,0-1.84-4.61-1.15-7.27,.83-3.19,5.18-8.32,5.32-8.47Z"/><path class="c" d="M26.64,171.74c.2,2.22,.56,4.06,.5,6.61-.03,1.48-1.89,4.65-3.38,5.71-.55,.53-1.13,.61-1.13,.61,0,0,2.62-4.34,2.55-7.76-.06-3.3,1.5-7.67,1.62-7.97-.03,.18-.27,1.64-.17,2.8Z"/></g></g><g><g><path class="f" d="M16.38,180.4h0c.15,.3,2.32,4.4,4.8,6.58,2.57,2.25,4.01,7.11,4.01,7.11,0,0-4.65-1.75-6.14-4.05-1.8-2.77-2.65-9.43-2.67-9.64Z"/><path class="c" d="M18.35,182.42c1.77,1.35,3.38,2.33,5.22,4.08,1.08,1.02,2.17,4.53,1.94,6.34,.02,.76-.31,1.24-.31,1.24,0,0-1.44-4.86-4.01-7.11-2.48-2.17-4.65-6.28-4.8-6.57,.11,.14,1.03,1.31,1.96,2.01Z"/></g><g><path class="f" d="M28.14,179.21s0,0,0,.01c-.08,.31-1.16,4.83-.73,8.1,.44,3.39-1.69,7.99-1.69,7.99,0,0-2.34-4.38-1.94-7.1,.47-3.27,4.24-8.83,4.36-9.01Z"/><path class="c" d="M28.28,182.02c.44,2.18,1,3.98,1.23,6.51,.13,1.48-1.36,4.83-2.73,6.05-.49,.59-1.06,.73-1.06,.73,0,0,2.13-4.6,1.69-7.99-.43-3.27,.65-7.79,.73-8.1,0,.18-.09,1.66,.14,2.8Z"/></g></g><g><g><path class="f" d="M19.46,191.75h0c.2,.26,3.09,3.89,5.93,5.57,2.94,1.74,5.26,6.25,5.26,6.25,0,0-4.89-.86-6.79-2.84-2.28-2.38-4.35-8.78-4.41-8.98Z"/><path class="c" d="M21.77,193.38c1.99,1,3.75,1.66,5.88,3.04,1.25,.8,2.97,4.05,3.08,5.87,.16,.75-.08,1.28-.08,1.28,0,0-2.31-4.51-5.26-6.25-2.84-1.68-5.73-5.31-5.93-5.56,.14,.12,1.26,1.09,2.3,1.61Z"/></g><g><path class="f" d="M30.79,188.4s0,0,0,.01c-.02,.32-.24,4.96,.78,8.09,1.06,3.25-.18,8.16-.18,8.16,0,0-3.11-3.87-3.22-6.61-.14-3.3,2.53-9.47,2.61-9.66Z"/><path class="c" d="M31.45,191.15c.84,2.06,1.72,3.72,2.41,6.17,.41,1.43-.44,5-1.56,6.45-.37,.67-.9,.91-.9,.91,0,0,1.24-4.91,.18-8.16-1.02-3.13-.8-7.77-.78-8.09,.03,.18,.22,1.65,.66,2.73Z"/></g></g><g><g><path class="f" d="M24.26,202.17h.01c.24,.22,3.73,3.29,6.81,4.44,3.2,1.2,6.27,5.23,6.27,5.23,0,0-4.97,.01-7.18-1.61-2.66-1.95-5.82-7.88-5.92-8.07Z"/><path class="c" d="M26.81,203.36c2.13,.63,3.98,.98,6.33,1.96,1.37,.57,3.63,3.47,4.07,5.24,.29,.71,.15,1.27,.15,1.27,0,0-3.07-4.04-6.27-5.23-3.09-1.15-6.57-4.22-6.81-4.44,.16,.09,1.43,.86,2.54,1.19Z"/></g><g><path class="f" d="M34.83,196.89h0c.04,.33,.63,4.94,2.19,7.85,1.62,3.01,1.26,8.07,1.26,8.07,0,0-3.74-3.27-4.33-5.95-.72-3.22,.83-9.76,.88-9.97Z"/><path class="c" d="M35.96,199.47c1.19,1.88,2.34,3.36,3.45,5.65,.65,1.33,.44,5-.41,6.62-.25,.72-.73,1.06-.73,1.06,0,0,.36-5.06-1.26-8.07-1.56-2.91-2.15-7.51-2.19-7.83,.06,.17,.51,1.59,1.13,2.57Z"/></g></g><g><g><path class="f" d="M32.1,212.56h.01c.29,.16,4.42,2.28,7.69,2.65,3.4,.38,7.36,3.54,7.36,3.54,0,0-4.81,1.22-7.35,.19-3.06-1.24-7.57-6.23-7.71-6.38Z"/><path class="c" d="M34.87,213.1c2.22,.09,4.1-.02,6.61,.36,1.47,.22,4.37,2.48,5.22,4.09,.45,.62,.46,1.2,.46,1.2,0,0-3.96-3.17-7.36-3.54-3.28-.37-7.4-2.49-7.69-2.64,.17,.05,1.6,.48,2.76,.53Z"/></g><g><path class="f" d="M41.07,204.87h0c.11,.31,1.81,4.64,4.03,7.07,2.3,2.53,3.18,7.52,3.18,7.52,0,0-4.42-2.26-5.65-4.71-1.48-2.95-1.57-9.67-1.57-9.88Z"/><path class="c" d="M42.79,207.1c1.61,1.54,3.09,2.69,4.73,4.64,.95,1.14,1.65,4.74,1.22,6.52-.07,.76-.45,1.2-.45,1.2,0,0-.88-4.99-3.18-7.52-2.22-2.44-3.92-6.76-4.03-7.06,.1,.15,.88,1.41,1.72,2.22Z"/></g></g><g><g><path class="f" d="M40.66,220.01h.01c.29,.14,4.49,2.12,7.78,2.37,3.41,.25,7.48,3.28,7.48,3.28,0,0-4.77,1.4-7.34,.46-3.1-1.13-7.79-5.95-7.93-6.1Z"/><path class="c" d="M43.45,220.45c2.23,.01,4.1-.17,6.62,.12,1.47,.17,4.46,2.32,5.37,3.9,.47,.6,.5,1.18,.5,1.18,0,0-4.07-3.02-7.48-3.28-3.29-.25-7.49-2.22-7.78-2.36,.18,.04,1.61,.42,2.77,.43Z"/></g><g><path class="f" d="M49.34,211.99h0c.13,.31,1.98,4.57,4.29,6.92,2.39,2.44,3.46,7.4,3.46,7.4,0,0-4.5-2.1-5.82-4.5-1.59-2.89-1.92-9.61-1.93-9.82Z"/><path class="c" d="M51.15,214.16c1.66,1.48,3.19,2.58,4.89,4.47,1,1.1,1.82,4.68,1.45,6.47-.04,.76-.41,1.22-.41,1.22,0,0-1.06-4.96-3.46-7.4-2.31-2.36-4.16-6.61-4.29-6.91,.1,.15,.93,1.38,1.8,2.15Z"/></g></g><g><path class="f" d="M51.66,227.07s0,0,.01,0c.32,.06,4.9,.82,8.13,.18,3.35-.67,8.09,1.14,8.09,1.14,0,0-4.21,2.63-6.95,2.42-3.29-.25-9.1-3.63-9.28-3.73Z"/><path class="c" d="M54.46,226.74c2.15-.59,3.9-1.27,6.41-1.67,1.47-.23,4.91,1.03,6.22,2.31,.62,.45,.8,1,.8,1,0,0-4.73-1.81-8.09-1.14-3.23,.65-7.81-.12-8.13-.18,.18,0,1.67-.03,2.79-.33Z"/></g><g><path class="f" d="M64.57,231.58s0,0,.01,0c.32,0,4.97,0,8.04-1.19,3.19-1.23,8.16-.23,8.16-.23,0,0-3.71,3.3-6.44,3.55-3.29,.31-9.58-2.05-9.78-2.13Z"/><path class="c" d="M67.27,230.78c2.02-.94,3.63-1.9,6.04-2.72,1.41-.48,5.02,.19,6.52,1.24,.68,.34,.96,.86,.96,.86,0,0-4.97-.99-8.16,.23-3.08,1.18-7.72,1.19-8.04,1.19,.18-.04,1.64-.31,2.69-.8Z"/></g><g><path class="f" d="M57.85,217.01h0c.2,.26,3.14,3.86,5.99,5.51,2.96,1.71,5.32,6.19,5.32,6.19,0,0-4.9-.8-6.81-2.77-2.31-2.36-4.44-8.73-4.51-8.93Z"/><path class="c" d="M60.18,218.61c2,.98,3.77,1.62,5.92,2.98,1.26,.79,3.01,4.02,3.15,5.84,.17,.74-.06,1.28-.06,1.28,0,0-2.36-4.49-5.32-6.19-2.86-1.65-5.79-5.25-5.99-5.5,.14,.12,1.27,1.08,2.31,1.59Z"/></g><g><path class="f" d="M68.81,221.75h0c.21,.19,3.29,2.85,6,3.83,2.81,1.02,5.53,4.53,5.53,4.53,0,0-4.35,.05-6.3-1.35-2.35-1.68-5.16-6.85-5.25-7.01Z"/><path class="c" d="M71.05,222.77c1.87,.54,3.49,.82,5.56,1.67,1.2,.49,3.21,3,3.6,4.56,.26,.62,.14,1.11,.14,1.11,0,0-2.72-3.51-5.53-4.53-2.71-.98-5.79-3.64-6-3.83,.14,.08,1.26,.74,2.24,1.02Z"/></g><g><path class="f" d="M73.61,234.5h0c.15-.08,2.3-1.15,3.45-2.4,1.19-1.3,3.72-1.98,3.72-1.98,0,0-.96,2.38-2.17,3.12-1.45,.89-4.9,1.25-5.01,1.26Z"/><path class="c" d="M74.68,233.52c.72-.9,1.24-1.71,2.17-2.64,.54-.54,2.36-1.06,3.3-.92,.39,0,.64,.18,.64,.18,0,0-2.53,.68-3.72,1.98-1.15,1.25-3.3,2.32-3.45,2.39,.07-.06,.69-.52,1.06-.98Z"/></g><g><g><path class="f" d="M144.58,145.1s0,0,0,.01c0,.32,.02,4.97-1.14,8.05-1.2,3.2-.18,8.16-.18,8.16,0,0,3.28-3.73,3.51-6.46,.28-3.29-2.11-9.57-2.19-9.76Z"/><path class="c" d="M143.8,147.81c-.93,2.02-1.88,3.64-2.68,6.06-.47,1.41,.22,5.02,1.28,6.51,.34,.68,.86,.95,.86,.95,0,0-1.02-4.96,.18-8.16,1.16-3.08,1.14-7.73,1.14-8.05-.03,.18-.3,1.64-.78,2.7Z"/></g><g><path class="f" d="M133.65,149.59h0c.22,.25,3.3,3.73,4.46,6.81,1.21,3.2,5.25,6.25,5.25,6.25,0,0,0-4.97-1.63-7.17-1.96-2.66-7.9-5.79-8.09-5.89Z"/><path class="c" d="M134.86,152.14c.64,2.13,.99,3.98,1.99,6.32,.58,1.37,3.48,3.62,5.26,4.05,.71,.29,1.28,.14,1.28,.14,0,0-4.05-3.05-5.25-6.25-1.16-3.08-4.24-6.56-4.46-6.8,.09,.16,.86,1.43,1.2,2.54Z"/></g><g><g><path class="f" d="M147.47,156.47h0c-.04,.33-.7,4.93-2.3,7.81-1.66,2.99-1.37,8.05-1.37,8.05,0,0,3.79-3.21,4.42-5.88,.76-3.21-.69-9.78-.73-9.98Z"/><path class="c" d="M146.31,159.04c-1.21,1.87-2.39,3.33-3.54,5.6-.67,1.32-.51,4.99,.31,6.63,.24,.73,.71,1.07,.71,1.07,0,0-.29-5.06,1.37-8.05,1.6-2.88,2.26-7.48,2.3-7.8-.06,.17-.53,1.58-1.17,2.55Z"/></g><g><path class="f" d="M136.01,159.31h0c.18,.28,2.72,4.17,3.42,7.39,.73,3.34,4.28,6.95,4.28,6.95,0,0,.72-4.91-.57-7.33-1.55-2.92-6.97-6.89-7.14-7.01Z"/><path class="c" d="M136.82,162.01c.32,2.2,.4,4.08,1.04,6.54,.37,1.44,2.91,4.09,4.61,4.77,.66,.39,1.24,.33,1.24,.33,0,0-3.56-3.61-4.28-6.95-.7-3.22-3.24-7.11-3.42-7.38,.07,.17,.64,1.54,.81,2.69Z"/></g></g><g><g><path class="f" d="M148.67,168.82h0c-.12,.31-1.82,4.63-4.05,7.06-2.31,2.52-3.2,7.51-3.2,7.51,0,0,4.43-2.25,5.66-4.7,1.49-2.95,1.6-9.67,1.6-9.88Z"/><path class="c" d="M146.94,171.04c-1.61,1.53-3.1,2.68-4.74,4.63-.96,1.13-1.66,4.74-1.23,6.52,.07,.76,.45,1.2,.45,1.2,0,0,.89-4.99,3.2-7.51,2.22-2.43,3.93-6.75,4.05-7.05-.1,.15-.88,1.41-1.72,2.21Z"/></g><g><path class="f" d="M136.85,168.93h0c.11,.32,1.68,4.69,1.62,7.98-.07,3.42,2.56,7.76,2.56,7.76,0,0,1.84-4.61,1.15-7.27-.83-3.19-5.18-8.32-5.32-8.47Z"/><path class="c" d="M137.02,171.74c-.2,2.22-.56,4.06-.5,6.61,.03,1.48,1.89,4.65,3.38,5.71,.55,.53,1.13,.61,1.13,.61,0,0-2.62-4.34-2.56-7.76,.06-3.3-1.5-7.67-1.62-7.97,.03,.18,.27,1.64,.17,2.8Z"/></g></g><g><g><path class="f" d="M147.27,180.4h0c-.15,.3-2.32,4.4-4.8,6.58-2.57,2.25-4.01,7.11-4.01,7.11,0,0,4.65-1.75,6.14-4.05,1.8-2.77,2.65-9.43,2.67-9.64Z"/><path class="c" d="M145.31,182.42c-1.77,1.35-3.38,2.33-5.22,4.08-1.08,1.02-2.17,4.53-1.94,6.34-.02,.76,.31,1.24,.31,1.24,0,0,1.44-4.86,4.01-7.11,2.48-2.17,4.65-6.28,4.8-6.57-.11,.14-1.03,1.31-1.96,2.01Z"/></g><g><path class="f" d="M135.52,179.21s0,0,0,.01c.08,.31,1.16,4.83,.73,8.1-.44,3.39,1.69,7.99,1.69,7.99,0,0,2.34-4.38,1.94-7.1-.47-3.27-4.24-8.83-4.36-9.01Z"/><path class="c" d="M135.38,182.02c-.44,2.18-1,3.98-1.23,6.51-.13,1.48,1.36,4.83,2.73,6.05,.49,.59,1.06,.73,1.06,.73,0,0-2.13-4.6-1.69-7.99,.43-3.27-.65-7.79-.73-8.1,0,.18,.09,1.66-.14,2.8Z"/></g></g><g><g><path class="f" d="M144.2,191.75h0c-.2,.26-3.09,3.89-5.93,5.57-2.94,1.74-5.26,6.25-5.26,6.25,0,0,4.89-.86,6.79-2.84,2.28-2.38,4.35-8.78,4.41-8.98Z"/><path class="c" d="M141.89,193.38c-1.99,1-3.75,1.66-5.88,3.04-1.25,.8-2.97,4.05-3.08,5.87-.16,.75,.08,1.28,.08,1.28,0,0,2.31-4.51,5.26-6.25,2.84-1.68,5.73-5.31,5.93-5.56-.14,.12-1.26,1.09-2.3,1.61Z"/></g><g><path class="f" d="M132.86,188.4s0,0,0,.01c.02,.32,.24,4.96-.78,8.09-1.06,3.25,.18,8.16,.18,8.16,0,0,3.11-3.87,3.22-6.61,.14-3.3-2.53-9.47-2.61-9.66Z"/><path class="c" d="M132.2,191.15c-.84,2.06-1.72,3.72-2.41,6.17-.41,1.43,.44,5,1.56,6.45,.37,.67,.9,.91,.9,.91,0,0-1.24-4.91-.18-8.16,1.02-3.13,.8-7.77,.78-8.09-.03,.18-.22,1.65-.66,2.73Z"/></g></g><g><g><path class="f" d="M139.4,202.17h-.01c-.24,.22-3.73,3.29-6.81,4.44-3.2,1.2-6.27,5.23-6.27,5.23,0,0,4.97,.01,7.18-1.61,2.66-1.95,5.82-7.88,5.92-8.07Z"/><path class="c" d="M136.85,203.36c-2.13,.63-3.98,.98-6.33,1.96-1.37,.57-3.63,3.47-4.07,5.24-.29,.71-.15,1.27-.15,1.27,0,0,3.07-4.04,6.27-5.23,3.09-1.15,6.57-4.22,6.81-4.44-.16,.09-1.43,.86-2.54,1.19Z"/></g><g><path class="f" d="M128.83,196.89h0c-.04,.33-.63,4.94-2.19,7.85-1.62,3.01-1.26,8.07-1.26,8.07,0,0,3.74-3.27,4.33-5.95,.72-3.22-.83-9.76-.88-9.97Z"/><path class="c" d="M127.7,199.47c-1.19,1.88-2.34,3.36-3.45,5.65-.65,1.33-.44,5,.41,6.62,.25,.72,.73,1.06,.73,1.06,0,0-.36-5.06,1.26-8.07,1.56-2.91,2.15-7.51,2.19-7.83-.06,.17-.51,1.59-1.13,2.57Z"/></g></g><g><g><path class="f" d="M131.55,212.56h-.01c-.29,.16-4.41,2.28-7.69,2.65-3.4,.38-7.36,3.54-7.36,3.54,0,0,4.81,1.22,7.35,.19,3.06-1.24,7.57-6.23,7.71-6.38Z"/><path class="c" d="M128.78,213.1c-2.22,.09-4.1-.02-6.61,.36-1.47,.22-4.37,2.48-5.22,4.09-.45,.62-.46,1.2-.46,1.2,0,0,3.96-3.17,7.36-3.54,3.28-.37,7.4-2.49,7.69-2.64-.17,.05-1.6,.48-2.76,.53Z"/></g><g><path class="f" d="M122.59,204.87h0c-.12,.31-1.81,4.64-4.03,7.07-2.3,2.53-3.18,7.52-3.18,7.52,0,0,4.42-2.26,5.65-4.71,1.48-2.95,1.57-9.67,1.57-9.88Z"/><path class="c" d="M120.86,207.1c-1.61,1.54-3.09,2.69-4.73,4.64-.96,1.14-1.65,4.74-1.22,6.52,.07,.76,.45,1.2,.45,1.2,0,0,.88-4.99,3.18-7.52,2.22-2.44,3.92-6.76,4.03-7.06-.1,.15-.88,1.41-1.72,2.22Z"/></g></g><g><g><path class="f" d="M122.99,220.01h-.01c-.29,.14-4.49,2.12-7.78,2.37-3.41,.25-7.48,3.28-7.48,3.28,0,0,4.77,1.4,7.34,.46,3.1-1.13,7.79-5.95,7.93-6.1Z"/><path class="c" d="M120.21,220.45c-2.23,.01-4.1-.17-6.62,.12-1.47,.17-4.46,2.32-5.37,3.9-.47,.6-.5,1.18-.5,1.18,0,0,4.07-3.02,7.48-3.28,3.29-.25,7.49-2.22,7.78-2.36-.18,.04-1.61,.42-2.77,.43Z"/></g><g><path class="f" d="M114.32,211.99h0c-.13,.31-1.98,4.57-4.29,6.92-2.39,2.44-3.46,7.4-3.46,7.4,0,0,4.5-2.1,5.82-4.5,1.59-2.89,1.92-9.61,1.93-9.82Z"/><path class="c" d="M112.51,214.16c-1.66,1.48-3.19,2.58-4.89,4.47-1,1.1-1.82,4.68-1.45,6.47,.04,.76,.41,1.22,.41,1.22,0,0,1.06-4.96,3.46-7.4,2.31-2.36,4.16-6.61,4.29-6.91-.1,.15-.93,1.38-1.8,2.15Z"/></g></g><g><g><path class="f" d="M112,227.07s0,0-.01,0c-.32,.06-4.9,.82-8.13,.18-3.35-.67-8.09,1.14-8.09,1.14,0,0,4.21,2.63,6.95,2.42,3.29-.25,9.1-3.63,9.28-3.73Z"/><path class="c" d="M109.19,226.74c-2.15-.59-3.9-1.27-6.41-1.67-1.47-.23-4.91,1.03-6.22,2.31-.62,.45-.8,1-.8,1,0,0,4.73-1.81,8.09-1.14,3.23,.65,7.81-.12,8.13-.18-.18,0-1.67-.03-2.79-.33Z"/></g><g><path class="f" d="M105.8,217.01h0c-.2,.26-3.14,3.86-5.99,5.51-2.96,1.71-5.32,6.19-5.32,6.19,0,0,4.9-.8,6.81-2.77,2.31-2.36,4.44-8.73,4.51-8.93Z"/><path class="c" d="M103.48,218.61c-2,.98-3.77,1.62-5.92,2.98-1.26,.79-3.01,4.02-3.15,5.84-.17,.74,.06,1.28,.06,1.28,0,0,2.36-4.49,5.32-6.19,2.86-1.65,5.79-5.25,5.99-5.5-.14,.12-1.27,1.08-2.31,1.59Z"/></g></g><g><path class="f" d="M100.84,231.55s0,0-.01,0c-.32,0-4.97-.04-8.04-1.24-3.18-1.25-8.16-.29-8.16-.29,0,0,3.69,3.33,6.42,3.59,3.28,.33,9.6-1.98,9.79-2.06Z"/><path class="c" d="M98.14,230.74c-2.01-.95-3.62-1.93-6.02-2.76-1.4-.49-5.02,.16-6.53,1.19-.69,.33-.96,.85-.96,.85,0,0,4.98-.96,8.16,.29,3.07,1.2,7.71,1.24,8.04,1.24-.18-.04-1.64-.32-2.69-.81Z"/></g><g><path class="f" d="M94.85,221.75h-.01c-.21,.19-3.29,2.85-6,3.83-2.81,1.02-5.53,4.53-5.53,4.53,0,0,4.35,.05,6.3-1.35,2.35-1.68,5.16-6.85,5.25-7.01Z"/><path class="c" d="M92.6,222.77c-1.87,.54-3.49,.82-5.56,1.67-1.2,.49-3.21,3-3.6,4.56-.26,.62-.14,1.11-.14,1.11,0,0,2.72-3.51,5.53-4.53,2.71-.98,5.79-3.64,6-3.83-.14,.08-1.26,.74-2.24,1.02Z"/></g><g><path class="f" d="M90.04,234.5h0c-.15-.08-2.3-1.15-3.45-2.4-1.2-1.3-3.72-1.98-3.72-1.98,0,0,.96,2.38,2.17,3.12,1.45,.89,4.9,1.25,5.01,1.26Z"/><path class="c" d="M88.97,233.52c-.72-.9-1.24-1.71-2.17-2.64-.54-.54-2.36-1.06-3.3-.92-.39,0-.64,.18-.64,.18,0,0,2.53,.68,3.72,1.98,1.15,1.25,3.3,2.32,3.45,2.39-.07-.06-.69-.52-1.06-.98Z"/></g></g></g></g></svg>