<?xml version="1.0" encoding="UTF-8"?><svg id="a" xmlns="http://www.w3.org/2000/svg" viewBox="0 0 249.88 249.88"><defs><style>.d{fill:#a2d5e3;}</style></defs><g id="b" transform="translate(0 0)"><path id="c" class="d" d="M124.96,0C55.96-.01,0,55.91,0,124.92c-.02,69,55.91,124.95,124.91,124.96,69.01,.01,124.95-55.91,124.97-124.92v-.02C249.8,55.98,193.92,.09,124.96,0Zm0,233.85c-60.15,0-108.91-48.76-108.91-108.91S64.81,16.03,124.96,16.03s108.91,48.76,108.91,108.91c-.07,60.12-48.79,108.84-108.91,108.91Z"/><path class="d" d="M151.12,60.44h-52.33c-21.18,0-38.34,17.17-38.34,38.34v52.33c0,21.18,17.16,38.34,38.34,38.34h52.33c21.17,0,38.34-17.16,38.34-38.34v-52.33c0-21.17-17.16-38.34-38.34-38.34Zm-25.28,95.04c-17.37,0-31.44-14.08-31.44-31.44s14.07-31.44,31.44-31.44c8.68,.01,16.53,3.53,22.21,9.22,5.69,5.69,9.21,13.54,9.22,22.22h0c0,17.36-14.08,31.44-31.44,31.44Zm33.27-72.5c2.07,0,3.93,.84,5.29,2.19,1.35,1.35,2.19,3.23,2.19,5.29,0,4.13-3.35,7.49-7.48,7.49s-7.49-3.36-7.49-7.49,3.35-7.48,7.49-7.48Z"/><path class="d" d="M145.97,124.04c0,11.12-9.02,20.13-20.14,20.14-11.12,0-20.14-9.02-20.14-20.14s9.02-20.14,20.14-20.14,20.14,9.02,20.14,20.14Z"/></g></svg>