<?xml version="1.0" encoding="UTF-8"?><svg id="a" xmlns="http://www.w3.org/2000/svg" viewBox="0 0 249.71 249.88"><defs><style>.e{fill:#fff;}</style></defs><g id="b" transform="translate(0 0)"><path id="c" class="e" d="M237.08,179.14l-31.82-17.19c-7.76-4.18-13.78-1.17-20.45,8.03-14.65,20.17-21.75,24.14-39.73,14.11-16.27-9.64-31.05-21.62-43.86-35.54-13.93-12.81-25.91-27.58-35.56-43.86-10.04-17.98-6.06-25.09,14.1-39.73,9.18-6.68,12.2-12.7,8.03-20.45l-17.15-31.82C63.62-.86,53.64-2.35,38.98,2.58,18.68,9.43-.93,38.73,.03,52.62c5.58,50.27,28.81,96.92,65.56,131.67,34.75,36.75,81.4,59.98,131.67,65.56,13.89,.99,42.99-18.83,49.85-39.09,4.98-14.71,3.44-24.63-10.1-31.65"/><path id="d" class="e" d="M141.87,56.58c-6.71,.03-12.13,5.49-12.1,12.19,.03,6.71,5.49,12.13,12.19,12.1h.33c14.86-.04,26.94,11.97,26.98,26.83,0,.12,0,.25,0,.37-.06,6.71,5.33,12.19,12.04,12.25h.11c6.68,0,12.11-5.39,12.15-12.07,.16-13.75-5.25-26.98-15-36.68-9.78-9.64-22.96-15.03-36.69-15m72.5-20.82c-19.19-19.23-45.28-29.98-72.44-29.84-6.71,0-12.15,5.44-12.15,12.15s5.44,12.15,12.15,12.15h.36c42.85-.03,77.61,34.69,77.64,77.55,0,.11,0,.22,0,.33-.05,6.71,5.35,12.18,12.06,12.22h.02c6.71,.04,12.17-5.37,12.21-12.07v-.04c.18-27.18-10.57-53.28-29.84-72.44"/></g></svg>