<?xml version="1.0" encoding="UTF-8"?><svg id="a" xmlns="http://www.w3.org/2000/svg" viewBox="0 0 271.58 249.88"><defs><style>.b{fill:#54b2cc;}</style></defs><path class="b" d="M239.79,140.55L140.3,52.67c-2.58-2.28-6.45-2.28-9.03,0L31.79,140.55c-.73,.65-1.15,1.58-1.15,2.56v103.36c0,1.88,1.53,3.41,3.41,3.41H103.98c1.88,0,3.41-1.53,3.41-3.41v-66.02c0-7.53,6.1-13.64,13.64-13.64h29.53c7.53,0,13.64,6.1,13.64,13.64v66.02c0,1.88,1.53,3.41,3.41,3.41h69.93c1.88,0,3.41-1.53,3.41-3.41v-103.36c0-.98-.42-1.91-1.15-2.56Z"/><path class="b" d="M267.2,106.45L153.79,6.79c-10.3-9.05-25.71-9.05-36.01,0L4.38,106.45c-5.59,4.91-5.87,13.53-.61,18.79h0c4.81,4.81,12.53,5.05,17.63,.56L126.77,32.99c5.15-4.54,12.87-4.54,18.03,0l105.37,92.81c5.1,4.49,12.82,4.25,17.63-.56,5.26-5.26,4.99-13.88-.61-18.79Z"/></svg>