<?xml version="1.0" encoding="UTF-8"?><svg id="a" xmlns="http://www.w3.org/2000/svg" xmlns:xlink="http://www.w3.org/1999/xlink" viewBox="0 0 228.79 249.88"><defs><style>.e{fill:#fff;}.f{fill:#a2d5e3;}.g{clip-path:url(#b);}.h{clip-path:url(#d);}.i{fill:none;}.j{fill:#bd0034;}.k{fill:#1a237b;}</style><clipPath id="b"><circle cx="415.63" cy="124.94" r="124.94"/></clipPath><clipPath id="d"><rect class="i" x="189.7" y="-6.85" width="451.87" height="263.58"/></clipPath></defs><g><rect class="f" x="0" y="239.29" width="228.79" height="10.59"/><polygon class="f" points="4.21 234.3 19.07 187.89 46.56 210.39 4.21 234.3"/><path class="f" d="M21.2,182.99s28.89-46.76,48.31-71.29l40.13,32.29s-47.06,55.75-59.1,63.98l-29.35-24.97Z"/><polygon class="f" points="156.09 0 228.79 0 112.59 139.35 72.25 107.93 156.09 0"/></g><g><circle cx="415.63" cy="124.94" r="124.94"/><g class="g"><g id="c"><g class="h"><rect class="e" x="189.7" y="-6.85" width="451.87" height="263.58"/><polygon class="j" points="189.7 13.21 323.45 88.45 354.7 88.45 189.7 -4.28 189.7 13.21"/><polygon class="j" points="347.62 166.72 189.7 255.2 189.7 256.73 218.23 256.73 378.88 166.72 347.62 166.72"/><polygon class="k" points="382.58 -6.85 225 -6.85 382.58 81.75 382.58 -6.85"/><polygon class="k" points="189.7 166.72 189.7 229.24 300.76 166.72 189.7 166.72"/><polygon class="k" points="189.7 88.45 300.76 88.45 189.7 25.84 189.7 88.45"/><polygon class="j" points="396.55 -6.85 396.55 104.11 189.7 104.11 189.7 151.1 396.55 151.1 396.55 256.73 438.46 256.73 438.46 151.1 641.57 151.1 641.57 104.11 438.46 104.11 438.46 -6.85 396.55 -6.85"/></g></g></g></g></svg>