<?xml version="1.0" encoding="UTF-8"?><svg id="a" xmlns="http://www.w3.org/2000/svg" viewBox="0 0 271.58 249.88"><defs><style>.b{fill:#54b2cc;}</style></defs><path class="b" d="M141.95,0h-12.49C75.59,2.73,29.12,59.73,45.53,112.83c8.87,25.3,22.22,48.14,37.39,69.83,5.34,7.64,10.92,15.14,16.59,22.56,5.01,6.54,10.11,13.01,15.2,19.46,6.65,8.41,13.32,16.79,19.82,25.2h2.73c6.41-8.52,13.04-16.97,19.68-25.43,5.09-6.48,10.18-12.97,15.2-19.53,5.64-7.36,11.18-14.78,16.51-22.35,15.84-22.53,29.75-46.27,38.42-72.86C240.34,57,194.67,2.73,141.95,0Zm-8.62,130.56c-21.58,0-39.08-17.49-39.08-39.07s17.5-39.09,39.08-39.09,39.08,17.5,39.08,39.09-17.51,39.07-39.08,39.07Z"/></svg>