<?xml version="1.0" encoding="UTF-8"?><svg id="a" xmlns="http://www.w3.org/2000/svg" viewBox="0 0 271.58 249.88"><defs><style>.e{fill:#fff;}</style></defs><g id="b" transform="translate(0 0)"><path id="c" class="e" d="M20.22,23.33l94.37,107.07c10.32,11.71,28.18,12.84,39.89,2.52,.89-.79,1.74-1.63,2.52-2.52L249.76,25.19c.75-.84,1.64-1.54,2.62-2.08-4.05-1.78-8.43-2.69-12.85-2.68H32.05c-4.25,0-8.45,.84-12.37,2.47,.16,.16,.33,.28,.48,.46"/><path id="d" class="e" d="M266.64,35.45c-.41,1.12-1.02,2.15-1.81,3.05l-92.76,105.21c-17.68,20.05-48.27,21.98-68.32,4.3-1.52-1.34-2.96-2.78-4.3-4.3L5.11,36.65c-.16-.22-.32-.46-.48-.67C1.61,40.95,0,46.65,0,52.47V197.4c0,17.7,14.33,32.05,32.03,32.06H239.53c17.7,0,32.05-14.35,32.05-32.05h0V52.47c0-6.03-1.72-11.93-4.95-17.02"/></g></svg>