<?xml version="1.0" encoding="UTF-8"?><svg id="k" xmlns="http://www.w3.org/2000/svg" viewBox="0 0 271.58 249.88"><defs><style>.k{fill:#54b2cc;}</style></defs><path class="k" d="M226.56,138.47c-6.71,7.51-14.23,14.42-20.15,22.52,2.17,29.83,7.9,59.26,10.46,88.89-20.35-9.08-40.3-18.95-60.44-28.05-6.72-2.96-13.04-7.11-20.15-9.08-6.51,.58-11.86,4.73-17.79,7.11-21.33,9.68-42.07,20.33-63.8,29.43,2.37-29.43,7.11-58.47,10.46-87.9-10.67-13.04-22.72-24.69-34.17-37.13-8.3-10.08-18.18-18.58-26.48-28.65,28.65-6.91,57.88-11.06,86.53-17.58,3.36-2.96,4.94-7.1,7.1-10.67C110.41,44.85,122.66,22.32,135.1,0c2.37,3.17,4.54,6.33,6.31,9.68,11.66,21.34,23.32,42.67,35.16,63.81,1.18,1.78,2.18,4.74,4.75,4.93,28.44,6.13,57.28,10.47,85.72,17.19-13.83,13.83-26.47,29.03-40.49,42.86Z"/></svg>