<?xml version="1.0" encoding="UTF-8"?><svg id="a" xmlns="http://www.w3.org/2000/svg" viewBox="0 0 271.58 244.05"><defs><style>.h{fill:#a2d5e3;}</style></defs><g id="b" transform="translate(0 0)"><path id="c" class="h" d="M162.39,126.95l-8.21,1.92c-4.91,1.12-9.99-.99-12.65-5.26-1.53-2.43-3.22-4.77-5.04-6.99-3.19-3.82-3.58-9.25-.99-13.49l4.54-7.31c1.1-1.74,.58-4.04-1.16-5.14l-.05-.03-16.01-9.96c-1.76-1.09-4.07-.55-5.17,1.21l-4.62,7.42c-2.62,4.19-7.62,6.25-12.44,5.12-2.81-.65-5.65-1.12-8.52-1.38-4.99-.48-9.12-4.08-10.26-8.96l-1.97-8.43c-.49-2-2.49-3.24-4.5-2.79l-18.38,4.29c-2,.48-3.24,2.48-2.78,4.49l1.97,8.43c1.13,4.89-.99,9.95-5.25,12.59-2.43,1.52-4.77,3.19-6.98,5.01-3.82,3.15-9.21,3.52-13.42,.92l-7.45-4.6c-1.76-1.01-4.01-.49-5.14,1.2l-10,16.04c-1.08,1.76-.54,4.06,1.21,5.17l7.31,4.54c4.23,2.64,6.29,7.68,5.13,12.53-.66,2.8-1.13,5.64-1.42,8.5-.52,5.01-4.13,9.14-9.03,10.32l-8.21,1.92c-2.01,.46-3.26,2.46-2.8,4.47v.03l4.3,18.36c.46,2.02,2.47,3.28,4.49,2.81h.01l8.08-1.89c4.92-1.13,10.02,1,12.68,5.29,1.53,2.48,3.24,4.86,5.1,7.11,3.15,3.83,3.53,9.24,.93,13.46l-4.46,7.15c-1.09,1.76-.55,4.07,1.21,5.17l16.05,9.95c1.76,1.01,4.01,.49,5.14-1.2l4.39-7.06c2.65-4.21,7.67-6.26,12.51-5.12,2.84,.69,5.73,1.18,8.64,1.46,5.08,.48,9.29,4.14,10.46,9.11l1.83,7.85c.48,2.01,2.48,3.25,4.49,2.79l18.38-4.29c2.01-.48,3.26-2.48,2.81-4.5l-1.83-7.85c-1.14-4.95,.99-10.08,5.3-12.77,2.48-1.54,4.86-3.26,7.1-5.14,3.83-3.17,9.25-3.55,13.48-.95l7.06,4.39c1.76,1.09,4.07,.55,5.17-1.21l9.96-16.03c1.09-1.76,.55-4.07-1.21-5.17l-7.16-4.45c-4.2-2.62-6.26-7.63-5.11-12.44,.66-2.83,1.12-5.71,1.4-8.6,.48-5.04,4.11-9.22,9.04-10.39l8.05-1.88c2.01-.47,3.26-2.49,2.79-4.5h0l-4.3-18.42c-.46-2.01-2.46-3.26-4.47-2.8h-.02m-65.96,77.56c-25.46,5.94-50.92-9.88-56.86-35.34-5.94-25.46,9.88-50.92,35.34-56.86,25.45-5.94,50.9,9.87,56.86,35.32,5.92,25.46-9.89,50.91-35.33,56.88"/><path id="d" class="h" d="M120.55,150.25c4.51,19.28-7.46,38.57-26.74,43.08-19.28,4.51-38.57-7.46-43.08-26.74-4.51-19.28,7.46-38.57,26.74-43.08h.02c19.27-4.49,38.54,7.47,43.07,26.74"/></g><g id="e" transform="translate(0 0)"><path id="f" class="h" d="M268.91,64.26l-6.65-.65c-3.97-.41-7.25-3.29-8.16-7.17-.53-2.22-1.2-4.4-2.01-6.53-1.42-3.68-.34-7.86,2.69-10.39l5.27-4.33c1.27-1.03,1.46-2.89,.44-4.15l-.03-.03-9.49-11.55c-1.05-1.26-2.92-1.45-4.19-.41l-5.36,4.39c-3.04,2.48-7.32,2.76-10.65,.68-1.94-1.21-3.96-2.28-6.05-3.21-3.63-1.63-5.81-5.39-5.43-9.35l.67-6.83c.14-1.63-1.04-3.07-2.67-3.24L202.41,.01c-1.62-.15-3.07,1.04-3.23,2.66l-.67,6.83c-.4,3.96-3.27,7.22-7.15,8.12-2.21,.52-4.39,1.18-6.52,1.99-3.67,1.39-7.81,.3-10.31-2.73l-4.43-5.35c-1.07-1.21-2.89-1.39-4.17-.41l-11.59,9.5c-1.26,1.05-1.44,2.91-.41,4.19l4.33,5.27c2.5,3.06,2.77,7.37,.66,10.71-1.21,1.94-2.29,3.95-3.23,6.02-1.66,3.63-5.43,5.81-9.41,5.45l-6.65-.65c-1.62-.16-3.07,1.02-3.24,2.65v.02l-1.46,14.88c-.17,1.63,1.02,3.09,2.65,3.26h0l6.55,.64c3.99,.41,7.27,3.3,8.17,7.2,.52,2.26,1.2,4.47,2.02,6.64,1.39,3.68,.3,7.84-2.73,10.35l-5.17,4.23c-1.26,1.05-1.45,2.92-.41,4.19l9.52,11.56c1.07,1.21,2.89,1.39,4.17,.41l5.09-4.19c3.06-2.48,7.36-2.75,10.7-.66,1.96,1.24,4,2.34,6.12,3.3,3.7,1.65,5.92,5.48,5.54,9.51l-.62,6.36c-.15,1.63,1.04,3.07,2.66,3.24l14.9,1.46c1.63,.15,3.08-1.03,3.26-2.66l.62-6.36c.4-4.01,3.31-7.32,7.23-8.24,2.26-.53,4.48-1.21,6.64-2.05,3.68-1.4,7.85-.31,10.37,2.72l4.19,5.09c1.05,1.26,2.92,1.45,4.19,.41l11.56-9.5c1.26-1.05,1.45-2.92,.41-4.19l-4.25-5.17c-2.49-3.04-2.76-7.32-.67-10.64,1.21-1.96,2.3-4,3.24-6.11,1.64-3.66,5.44-5.88,9.43-5.5l6.52,.64c1.63,.16,3.08-1.04,3.24-2.67h0l1.46-14.93c.16-1.62-1.02-3.07-2.65-3.24h-.02m-69.29,41.45c-20.63-2.02-35.72-20.39-33.7-41.02,2.02-20.63,20.39-35.72,41.02-33.7,20.63,2.02,35.72,20.38,33.71,41-2.04,20.63-20.39,35.72-41.02,33.72"/><path id="g" class="h" d="M231.55,71.1c-1.52,15.63-15.42,27.07-31.05,25.55-15.63-1.52-27.07-15.42-25.55-31.05,1.52-15.63,15.42-27.07,31.05-25.55h.01c15.62,1.54,27.04,15.43,25.54,31.05"/></g></svg>