<?xml version="1.0" encoding="UTF-8"?><svg id="a" xmlns="http://www.w3.org/2000/svg" viewBox="0 0 249.88 249.88"><defs><style>.b{fill:#fff;}.c{fill:#bd0034;}.d{fill:#1a237b;}</style></defs><path class="b" d="M249.88,124.94c0,8.97-.95,17.72-2.74,26.16-1.73,8.12-4.25,15.95-7.48,23.4-2.02,4.7-4.34,9.24-6.9,13.62-3.73,6.34-8,12.32-12.74,17.88-15.2,17.82-35.33,31.31-58.28,38.37-4.55,1.4-9.22,2.55-13.98,3.43-7.4,1.37-15.03,2.08-22.82,2.08-6.49,0-12.86-.49-19.08-1.45-4.75-.73-9.42-1.72-13.98-2.97-23.85-6.53-44.86-19.95-60.74-37.98-1.72-1.95-3.38-3.96-4.97-6.02-3.13-4.03-6.02-8.26-8.65-12.66-3.89-6.54-7.21-13.47-9.87-20.72-.17-.45-.33-.9-.5-1.36-1.79-5.06-3.27-10.28-4.41-15.62C.95,142.66,0,133.91,0,124.94,0,117.84,.59,110.88,1.73,104.11c.9-5.35,2.13-10.57,3.69-15.66,.22-.75,.45-1.49,.69-2.22,1.17-3.59,2.49-7.1,3.97-10.53,2.02-4.72,4.33-9.28,6.9-13.68,3.31-5.66,7.05-11.04,11.18-16.09C44.35,26.12,66.5,11.37,91.88,4.42c4.56-1.25,9.23-2.24,13.98-2.97C112.08,.49,118.45,0,124.94,0c7.79,0,15.42,.71,22.82,2.08,4.76,.88,9.43,2.03,13.98,3.43,24.46,7.53,45.72,22.37,61.23,41.96,2.09,2.64,4.08,5.37,5.95,8.19,2.82,4.22,5.39,8.62,7.68,13.18,3.09,6.12,5.68,12.53,7.73,19.17,.05,.14,.09,.29,.13,.44,1.56,5.09,2.79,10.31,3.69,15.66,1.14,6.77,1.73,13.73,1.73,20.83Z"/><path class="c" d="M236.6,68.84l-35.04,19.61h-31.22l58.58-32.79c2.82,4.22,5.39,8.62,7.68,13.18Z"/><path class="c" d="M239.66,174.5c-2.02,4.7-4.34,9.24-6.9,13.62l-38.24-21.4h31.24l13.9,7.78Z"/><path class="c" d="M64.01,88.45h-31.25l-22.68-12.75c2.02-4.72,4.33-9.28,6.9-13.68l47.03,26.43Z"/><path class="c" d="M88.19,166.72l-62.02,34.74c-3.13-4.03-6.02-8.26-8.65-12.66l39.4-22.08h31.27Z"/><path class="d" d="M222.97,47.47l-61.23,34.29V5.51c24.46,7.53,45.72,22.37,61.23,41.96Z"/><path class="d" d="M91.88,4.42V81.76L28.16,45.93C44.35,26.12,66.5,11.37,91.88,4.42Z"/><path class="d" d="M244.46,88.45h-.91l.78-.44c.05,.14,.09,.29,.13,.44Z"/><path class="d" d="M91.88,173.44v72.02c-23.85-6.53-44.86-19.95-60.74-37.98l60.74-34.04Z"/><path class="d" d="M220.02,206c-15.2,17.82-35.33,31.31-58.28,38.37v-70.93l58.28,32.56Z"/><path class="d" d="M10.06,166.72l-2.41,1.36c-.17-.45-.33-.9-.5-1.36h2.91Z"/><path class="d" d="M10.06,88.45H5.42c.22-.75,.45-1.49,.69-2.22l3.95,2.22Z"/><path class="c" d="M249.88,124.94c0,8.97-.95,17.72-2.74,26.16h-99.38v96.7c-7.4,1.37-15.03,2.08-22.82,2.08-6.49,0-12.86-.49-19.08-1.45v-97.33H2.74C.95,142.66,0,133.91,0,124.94,0,117.84,.59,110.88,1.73,104.11H105.86V1.45C112.08,.49,118.45,0,124.94,0c7.79,0,15.42,.71,22.82,2.08V104.11h100.39c1.14,6.77,1.73,13.73,1.73,20.83Z"/></svg>